<?xml version="1.0" encoding="UTF-8"?><svg id="Layer_1" xmlns="http://www.w3.org/2000/svg" xmlns:xlink="http://www.w3.org/1999/xlink" viewBox="0 0 1920 393"><defs><style>.cls-1{fill:url(#linear-gradient);}.cls-1,.cls-2,.cls-3,.cls-4{stroke-width:0px;}.cls-5{stroke:#fff;stroke-miterlimit:10;}.cls-5,.cls-2{fill:none;}.cls-6{clip-path:url(#clippath-1);}.cls-3{fill:url(#linear-gradient-2);}.cls-4{fill:url(#linear-gradient-3);}.cls-7{clip-path:url(#clippath);}</style><clipPath id="clippath"><polygon class="cls-5" points="307.5 -985 909.5 -981 909.5 -419.34 307.5 -419.34 307.5 -985"/></clipPath><linearGradient id="linear-gradient" x1="608.5" y1="-732.44" x2="608.5" y2="-1056.89" gradientUnits="userSpaceOnUse"><stop offset=".52" stop-color="#cc0505"/><stop offset="1" stop-color="#830e0e"/></linearGradient><linearGradient id="linear-gradient-2" x1="608.5" y1="-860.88" x2="608.5" y2="-1157.88" gradientUnits="userSpaceOnUse"><stop offset="0" stop-color="#d63535"/><stop offset=".46" stop-color="#d53333"/><stop offset=".62" stop-color="#d42c2c"/><stop offset=".74" stop-color="#d12020"/><stop offset=".83" stop-color="#ce0f0f"/><stop offset=".88" stop-color="#cc0505"/></linearGradient><clipPath id="clippath-1"><rect class="cls-2" y="-687" width="1920" height="1080"/></clipPath><linearGradient id="linear-gradient-3" x1="960" y1="-289.27" x2="960" y2="568.22" gradientUnits="userSpaceOnUse"><stop offset=".52" stop-color="#cc0505"/><stop offset="1" stop-color="#830e0e"/></linearGradient></defs><g class="cls-7"><path class="cls-1" d="m-608.25-544.26c169.87-105.56,358.89-187.74,561.81-244.25,209.93-58.46,430.28-88.1,654.94-88.1s445.01,29.64,654.94,88.1c202.92,56.51,391.94,138.69,561.81,244.25,168.24,104.55,313.1,229.14,430.56,370.32,116.6,140.14,203.1,293,257.22,454.52V-980.5H-1296.03V280.58c54.13-161.51,140.63-314.37,257.22-454.52,117.46-141.18,262.32-265.77,430.56-370.32Z"/><path class="cls-3" d="m2513.13,293.65c-222.83-686.67-1006.05-1166.26-1904.63-1166.26S-1073.29-393.03-1296.13,293.65l-1.9,5.86v5.52C-1080.16-366.36-309.18-862.61,608.5-862.61s1688.66,496.25,1906.53,1167.64v-5.52l-1.9-5.86Z"/></g><polygon class="cls-5" points="307.5 -985 909.5 -981 909.5 -419.34 307.5 -419.34 307.5 -985"/><g class="cls-6"><path class="cls-4" d="m960,139.48c-1622.1,0-2984.89-877.18-3370-2063.93V652h6740V-1924.45C3944.89-737.7,2582.1,139.48,960,139.48Z"/></g></svg>