<?xml version="1.0" encoding="UTF-8"?><svg id="Layer_1" xmlns="http://www.w3.org/2000/svg" xmlns:xlink="http://www.w3.org/1999/xlink" viewBox="0 0 600 150"><defs><style>.cls-1{fill:url(#linear-gradient);}.cls-1,.cls-2,.cls-3,.cls-4,.cls-5,.cls-6{stroke-width:0px;}.cls-7{stroke:#fff;stroke-miterlimit:10;}.cls-7,.cls-3{fill:none;}.cls-8{clip-path:url(#clippath-2);}.cls-2{fill:url(#linear-gradient-5);}.cls-9{clip-path:url(#clippath-1);}.cls-4{fill:url(#linear-gradient-2);}.cls-5{fill:url(#linear-gradient-3);}.cls-10{clip-path:url(#clippath);}.cls-11{clip-path:url(#clippath-3);}.cls-6{fill:url(#linear-gradient-4);}</style><clipPath id="clippath"><rect class="cls-3" y="-1269" width="1920" height="1080"/></clipPath><linearGradient id="linear-gradient" x1="960" y1="-871.27" x2="960" y2="-13.78" gradientUnits="userSpaceOnUse"><stop offset=".52" stop-color="#cc0505"/><stop offset="1" stop-color="#830e0e"/></linearGradient><clipPath id="clippath-1"><rect class="cls-3" x="1976" y="-1087" width="1080" height="1318"/></clipPath><linearGradient id="linear-gradient-2" x1="2515.45" y1="-853.62" x2="2511.97" y2="343.89" xlink:href="#linear-gradient"/><clipPath id="clippath-2"><polygon class="cls-7" points="-1 -7.5 601 -3.5 601 558.16 -1 558.16 -1 -7.5"/></clipPath><linearGradient id="linear-gradient-3" x1="300" y1="245.06" x2="300" y2="-79.39" gradientUnits="userSpaceOnUse"><stop offset=".52" stop-color="#cc0505"/><stop offset="1" stop-color="#830e0e"/></linearGradient><linearGradient id="linear-gradient-4" x1="300" y1="116.62" x2="300" y2="-180.38" gradientUnits="userSpaceOnUse"><stop offset="0" stop-color="#d63535"/><stop offset=".46" stop-color="#d53333"/><stop offset=".62" stop-color="#d42c2c"/><stop offset=".74" stop-color="#d12020"/><stop offset=".83" stop-color="#ce0f0f"/><stop offset=".88" stop-color="#cc0505"/></linearGradient><clipPath id="clippath-3"><rect class="cls-3" x="-248.5" y="-433" width="1920" height="1080"/></clipPath><linearGradient id="linear-gradient-5" x1="711.5" y1="-35.27" x2="711.5" y2="822.22" xlink:href="#linear-gradient"/></defs><g class="cls-10"><path class="cls-1" d="m960-442.52c-1622.1,0-2984.89-877.18-3370-2063.93V70h6740v-2576.45C3944.89-1319.7,2582.1-442.52,960-442.52Z"/></g><g class="cls-9"><path class="cls-4" d="m2516-249.54c-1660.13,0-3054.86-897.74-3449-2112.31V275h6898v-2636.85C5570.86-1147.28,4176.13-249.54,2516-249.54Z"/></g><g class="cls-8"><path class="cls-5" d="m-916.75,433.24c169.87-105.56,358.89-187.74,561.81-244.25C-145.01,130.53,75.34,100.89,300,100.89s445.01,29.64,654.94,88.1c202.92,56.51,391.94,138.69,561.81,244.25,168.24,104.55,313.1,229.14,430.56,370.32,116.6,140.14,203.1,293,257.22,454.52V-3H-1604.53v1261.08c54.13-161.51,140.63-314.37,257.22-454.52,117.46-141.18,262.32-265.77,430.56-370.32Z"/><path class="cls-6" d="m2204.63,1271.15C1981.79,584.47,1198.58,104.89,300,104.89s-1681.79,479.58-1904.63,1166.26l-1.9,5.86v5.52C-1388.66,611.14-617.68,114.89,300,114.89s1688.66,496.25,1906.53,1167.64v-5.52l-1.9-5.86Z"/></g><polygon class="cls-7" points="-1 -7.5 601 -3.5 601 558.16 -1 558.16 -1 -7.5"/><g class="cls-11"><path class="cls-2" d="m711.5,393.48c-1622.1,0-2984.89-877.18-3370-2063.93V906H4081.5V-1670.45C3696.39-483.7,2333.6,393.48,711.5,393.48Z"/></g></svg>