<?xml version="1.0" encoding="UTF-8"?><svg id="Layer_1" xmlns="http://www.w3.org/2000/svg" xmlns:xlink="http://www.w3.org/1999/xlink" viewBox="0 0 800.5 502"><defs><style>.cls-1{fill:#ffa320;}.cls-1,.cls-2,.cls-3,.cls-4,.cls-5,.cls-6,.cls-7,.cls-8,.cls-9,.cls-10,.cls-11,.cls-12,.cls-13,.cls-14,.cls-15,.cls-16,.cls-17,.cls-18,.cls-19,.cls-20{stroke-width:0px;}.cls-2{fill:url(#linear-gradient);}.cls-21{stroke:#fff;}.cls-21,.cls-22,.cls-23,.cls-24,.cls-9,.cls-25,.cls-26{fill:none;}.cls-21,.cls-22,.cls-23,.cls-24,.cls-25,.cls-26{stroke-miterlimit:10;}.cls-3{fill:#411809;}.cls-4{fill:#e6e6e6;}.cls-5{fill:#e3e5ff;}.cls-6{fill:#ffc69a;}.cls-22{stroke-dasharray:0 0 7.1 7.1;}.cls-22,.cls-24{stroke:#b3b3b3;}.cls-23,.cls-25,.cls-26{stroke:#3943b3;}.cls-8{fill:#ffb780;}.cls-27{clip-path:url(#clippath-1);}.cls-10{fill:#fff;}.cls-11{fill:#0a9ac1;}.cls-12{fill:url(#linear-gradient-2);}.cls-13{fill:#ffb939;}.cls-14{fill:#daa184;}.cls-15{fill:url(#linear-gradient-3);}.cls-28{opacity:.1;}.cls-29{clip-path:url(#clippath);}.cls-16{fill:#3943b3;}.cls-17{fill:#f4e1c9;}.cls-25{stroke-width:2px;}.cls-25,.cls-26{stroke-linecap:round;}.cls-18{fill:#0ab4ef;}.cls-19{fill:#eb4334;}.cls-20{fill:#cc0505;}</style><clipPath id="clippath"><polygon class="cls-21" points="-2117 -573.5 -1515 -569.5 -1515 -7.84 -2117 -7.84 -2117 -573.5"/></clipPath><linearGradient id="linear-gradient" x1="-1816" y1="-320.94" x2="-1816" y2="-645.39" gradientUnits="userSpaceOnUse"><stop offset=".52" stop-color="#cc0505"/><stop offset="1" stop-color="#830e0e"/></linearGradient><linearGradient id="linear-gradient-2" x1="-1816" y1="-449.38" x2="-1816" y2="-746.38" gradientUnits="userSpaceOnUse"><stop offset="0" stop-color="#d63535"/><stop offset=".46" stop-color="#d53333"/><stop offset=".62" stop-color="#d42c2c"/><stop offset=".74" stop-color="#d12020"/><stop offset=".83" stop-color="#ce0f0f"/><stop offset=".88" stop-color="#cc0505"/></linearGradient><clipPath id="clippath-1"><rect class="cls-9" x="-2364.5" y="-999" width="1920" height="1080"/></clipPath><linearGradient id="linear-gradient-3" x1="-1404.5" y1="-601.27" x2="-1404.5" y2="256.22" gradientUnits="userSpaceOnUse"><stop offset=".52" stop-color="#cc0505"/><stop offset="1" stop-color="#830e0e"/></linearGradient></defs><path class="cls-5" d="m117.05,61.23C207.4-10.92,324.34,14.34,329.21,15.47c73.89,17.17,70.57,55.68,151.15,84.59,117.6,42.18,179.39-20.23,246.83,27.73,52.71,37.49,74.79,118.16,59.63,178.88-28.04,112.32-188.81,177.56-310.62,162.24-116.3-14.62-146.95-96.36-275.95-94.29-83.42,1.34-111.89,36.19-144.21,13.87C-6.04,345.64,3.9,151.6,117.05,61.23Z"/><rect class="cls-10" x="138.15" y="84.5" width="531.46" height="359.21" rx="25.03" ry="25.03"/><path class="cls-4" d="m649.12,85.73H162.05c-12.69-.49-23.17,8.18-22.79,22.84v7.94l529.29-.49v-9.05c0-11.25-8.87-21.24-19.43-21.24Z"/><path class="cls-20" d="m187.81,277.31h175.11c3.36,0,6.08,2.73,6.08,6.08v54.16c0,3.36-2.73,6.08-6.08,6.08h-175.11c-3.36,0-6.08-2.73-6.08-6.08v-54.16c0-3.36,2.73-6.08,6.08-6.08Z"/><path class="cls-10" d="m237.31,311.42c0,9.94-8.06,18-18,18s-18-8.06-18-18,8.06-18,18-18,18,8.06,18,18Z"/><line class="cls-21" x1="252.47" y1="313.31" x2="347.21" y2="313.31"/><line class="cls-21" x1="252.47" y1="301.05" x2="297.87" y2="301.05"/><line class="cls-21" x1="252.47" y1="324.68" x2="347.21" y2="324.68"/><path class="cls-5" d="m639.89,155.59v-9.06c0-5.7-4.62-10.32-10.32-10.32h-197.16c-5.7,0-10.32,4.62-10.32,10.32v88.35l217.81-79.29Z"/><rect class="cls-5" x="477" y="142.24" width="39.77" height="84.26" transform="translate(-32.94 197.56) rotate(-21.78)"/><rect class="cls-24" x="422.09" y="136.21" width="217.81" height="253.6" rx="13.64" ry="13.64"/><rect class="cls-5" x="463.48" y="170.86" width="39.77" height="84.26" transform="translate(-44.52 194.58) rotate(-21.78)"/><rect class="cls-5" x="442.58" y="202.19" width="39.77" height="39.77" transform="translate(-49.39 187.48) rotate(-21.78)"/><rect class="cls-5" x="587.26" y="152.8" width="39.77" height="56.61" transform="translate(-23.85 238.24) rotate(-21.78)"/><rect class="cls-4" x="182.35" y="136.21" width="186.65" height="27.11"/><rect class="cls-4" x="182.35" y="360.66" width="186.65" height="10.46"/><rect class="cls-4" x="182.35" y="380.15" width="186.65" height="10.46"/><rect class="cls-22" x="181.73" y="193.93" width="187.27" height="66.32" rx="6.08" ry="6.08"/><circle class="cls-1" cx="621.76" cy="102.48" r="4.34"/><circle class="cls-20" cx="636.23" cy="102.48" r="4.34"/><circle class="cls-18" cx="650.71" cy="102.48" r="4.34"/><path class="cls-10" d="m598.13,109.64H160.65c-4.71,0-8.52-3.82-8.52-8.52h0c0-4.71,3.82-8.52,8.52-8.52h437.48c4.71,0,8.52,3.82,8.52,8.52h0c0,4.71-3.82,8.52-8.52,8.52Z"/><rect class="cls-24" x="138.15" y="84.5" width="531.46" height="359.21" rx="25.03" ry="25.03"/><path class="cls-20" d="m117.7,193.93h175.11c3.36,0,6.08,2.73,6.08,6.08v54.16c0,3.36-2.73,6.08-6.08,6.08H117.7c-3.36,0-6.08-2.73-6.08-6.08v-54.16c0-3.36,2.73-6.08,6.08-6.08Z"/><path class="cls-10" d="m167.19,228.04c0,9.94-8.06,18-18,18s-18-8.06-18-18,8.06-18,18-18,18,8.06,18,18Z"/><line class="cls-21" x1="182.35" y1="229.93" x2="277.1" y2="229.93"/><line class="cls-21" x1="182.35" y1="217.67" x2="227.75" y2="217.67"/><line class="cls-21" x1="182.35" y1="241.3" x2="277.1" y2="241.3"/><path class="cls-1" d="m91.76,470.72s11.74,3.34,17.51,6.54c4.62,2.57,5.2,4.71-.51,4.72-7.29.02-15.96-.14-21.17-.95-3.52-.55-2.06-8.82-1.46-10.23l5.64-.08Z"/><polygon class="cls-6" points="90.73 470.73 91.92 466.16 85.84 466.88 86.12 470.8 90.73 470.73"/><path class="cls-11" d="m112.81,480.91c-6.34-.22-19.63-.77-23.1-1.6-2.05-.49-3.44-1.38-4.37-2.23.12,1.98.7,3.71,2.25,3.95,5.21.81,13.88.97,21.17.95,2.47,0,3.76-.41,4.06-1.07Z"/><path class="cls-14" d="m63.95,311.45s-1.46-6.92,10.85-16.12c12.31-9.2,18.95-15.88,18.95-15.88l11.66-40.4,4.05,1.91s.25,31.7-1.52,41.12c-1.78,9.41-40.79,50.23-43.99,29.36Z"/><path class="cls-1" d="m95.93,269.49l13.24,1.93-.5,11.06s-19.35,30.2-31.96,34.97c-12.6,4.77-20.16-2.59-17.08-7.85,3.09-5.26,32.05-29.83,32.05-29.83l4.24-10.28Z"/><rect class="cls-13" x="98.83" y="261.9" width="6.63" height="15.87" transform="translate(384.6 211.01) rotate(98.97)"/><path class="cls-14" d="m109.45,250.16s-7.65-18.72-5.41-20.87c0,0,7.15,12.06,9.32,17.15"/><path class="cls-13" d="m19.19,459.25s8.26,8.99,11.49,14.74c2.59,4.61,1.97,6.73-2.91,3.75-6.23-3.8-13.53-8.47-17.54-11.89-2.71-2.31,2.87-8.59,4.11-9.49l4.85,2.88Z"/><polygon class="cls-6" points="18.31 458.72 21.71 455.46 16.16 452.89 14.34 456.37 18.31 458.72"/><path class="cls-18" d="m87.9,358.59l-24.12-13.45s4.05,50.86,19.46,73.34c0,0,.12,40.92,2.81,49.75l5.64-.14s8.62-46.55,7.82-53.97c-1.48-13.64-2.91-33.31-11.6-55.53Z"/><path class="cls-3" d="m62.34,264.92s-9.65,4.74-10.42,22.5c-.77,17.77-3.84,18.43-3.84,18.43,0,0,13.06,7.6,27.67,0l-13.4-40.93Z"/><path class="cls-6" d="m73.99,266.58c3.87,3.55,5.74,9.28,5.94,14.71.21,5.89-8.83,6.69-13.96,3.83-4.55-2.54-7.78-8.23-6.91-13.08,1.13-6.29,9.76-10.19,14.94-5.45Z"/><path class="cls-6" d="m68.71,273.81l-9.51,1.48,3.57,23c.51,3.29,3.6,5.55,6.89,5.04h0c3.54-.55,5.83-4.05,4.9-7.52l-5.86-22Z"/><path class="cls-3" d="m69.72,265.37s2.36,12.87-10.52,16.02c-8.99,2.2-8.74-20.18,3.95-20.64,17.84-.65,13.82,9.6,13.82,9.6,0,0-4.3-6.28-7.25-4.98Z"/><polygon class="cls-14" points="72.64 288.57 65.42 285.4 72.14 286.61 72.64 288.57"/><path class="cls-18" d="m83.35,348.04l-29.37,7.81s-8.26,11.21-5.23,54.85c0,0-25.65,21.57-32.81,42.56l4.75,3.11s36.12-32.27,41.19-37.74c6.09-6.57,17.87-28.42,21.47-70.59Z"/><path class="cls-13" d="m80.25,298.05c-.61-2.63-2.49-4.78-5.02-5.7-5.43-1.99-18.67-2.1-18.8,15.78-.24,35.17-2.45,47.72-2.45,47.72,0,0,7.05,6.14,33.92,2.74l-3.54-22.22,3.14-6.82c2.02-5.41,1.81-11.41-.56-16.67l-6.69-14.82Z"/><path class="cls-6" d="m69.33,312.86s-1.46-6.91,10.85-16.12c12.31-9.2,18.95-15.88,18.95-15.88l11.66-40.4,4.05,1.91s.25,31.7-1.52,41.12c-1.78,9.41-40.79,50.23-43.99,29.36Z"/><path class="cls-6" d="m109.87,244.24s-2.69-11.38-.45-13.54c0,0,2.19,4.73,4.36,9.82.68,1.59,7.57,6.56,4.01,6.03-3.56-.53-7.93-2.31-7.93-2.31Z"/><path class="cls-6" d="m75.74,268.78s2.92,3.05,5.25,3.62c0,0-.49,2.1-2.25,3.11l-3-6.73Z"/><path class="cls-11" d="m31.8,478.95c-5.28-3.5-16.32-10.92-18.85-13.45-1.49-1.49-2.2-2.98-2.56-4.19-.94,1.75-1.34,3.53-.15,4.55,4.01,3.42,11.32,8.09,17.54,11.89,2.11,1.29,3.42,1.62,4.02,1.21Z"/><path class="cls-6" d="m14.78,456.63s6.42,11.1,9.27,8.23l-4.75-7.1-4.53-1.13Z"/><path class="cls-6" d="m86.79,470.62s11.26,6.31,12.06,2.35l-7.87-3.31-4.19.97Z"/><path class="cls-13" d="m102.27,269.99l12.08,2.22-.73,13.95s-17.96,27.02-30.56,31.79c-12.6,4.77-20.16-2.59-17.08-7.85,3.09-5.26,32.05-29.83,32.05-29.83l4.24-10.28Z"/><rect class="cls-13" x="105.17" y="262.39" width="6.63" height="15.87" transform="translate(392.42 205.32) rotate(98.97)"/><path class="cls-18" d="m87.9,358.59l3.15,8.87-20.29,22.38,1.91-30.23s6.46.2,15.24-1.02Z"/><path class="cls-11" d="m64.35,407.39c-4.14,4.26-5.45,6.2-6.04,8.7-.48,2.05.04,2.31-.53,3.55-1.56,3.38-5.98,2.68-11.36,5.15-3.94,1.81-6.53,4.7-11.72,10.48-2.58,2.87-2.35,3.04-6.57,8.35-5.01,6.3-8.05,9.48-9.48,11.42l2.05,1.34s36.12-32.27,41.19-37.74c2.73-2.94,6.61-8.98,10.37-18.52-.69-.15-3.14,2.36-7.91,7.28Z"/><rect class="cls-11" x="83.92" y="464.74" width="9.47" height="3.74" transform="translate(177.3 933.22) rotate(180)"/><rect class="cls-11" x="13.62" y="452.34" width="9.47" height="3.74" transform="translate(-192.85 856.75) rotate(-150)"/><path class="cls-13" d="m51.51,279.24l21.67-17.12c-4.73-5.99-13.41-7-19.4-2.28-5.99,4.73-7,13.41-2.28,19.4"/><path class="cls-1" d="m58.44,257.44c-1.64.48-3.23,1.27-4.65,2.4-5.99,4.73-7,13.41-2.28,19.4l5.64-4.46c-3.76-5.39-3.16-12.64,1.29-17.34Z"/><rect class="cls-1" x="48.1" y="267.3" width="32.03" height="3.95" transform="translate(-148.29 91.78) rotate(-36.72)"/><path class="cls-18" d="m87.49,329.55c1.71-4.6,1.81-9.61.35-14.24-8.19,2.98-15.18,2.39-20.49.76-4.42-15.88,2.52-22.97,4.34-24.5-1.74-.19-3.69-.1-5.61.41-2.78,3.98-5.64,11.13-3.24,22.32-4.12-2-6.44-4.21-6.44-4.21h0c-.31,33.68-3.28,47.31-3.28,47.31,0,0,7.9,4.59,34.77,1.2l-3.54-22.22,3.14-6.82Z"/><path class="cls-11" d="m99.5,414.12c-1.48-13.64-2.91-33.31-11.6-55.53l-3.54-22.22,3.14-6.82c1.71-4.6,1.81-9.61.35-14.24-1.4.51-2.75.88-4.08,1.19.38,3.94.57,9.09-2.01,14.54-.88,1.87-2.26,4.12-2.84,7.81-.69,4.37.18,7.87.71,9.94,3.03,11.76,6.04,20.24,6.04,20.24,4.19,11.82,6.28,17.73,6.39,20.6.4,10.76-4.51,16.81-.35,22.37,1.99,2.67,4.79,3.51,4.97,6.39.17,2.74-2.25,3.67-3.91,7.1-2.26,4.68-.25,8.08,0,14.92.25,6.94-1.66,7.77-2.49,15.27-.44,4.03-.43,8.53-.06,12.44l1.48-.04s8.62-46.55,7.82-53.97Z"/><polygon class="cls-19" points="243.6 476.18 197.16 476.18 212.28 399.65 228.48 399.65 243.6 476.18"/><rect class="cls-13" x="186.17" y="472.37" width="66.27" height="7.91"/><polygon class="cls-13" points="243.6 476.18 197.16 476.18 212.28 399.65 228.48 399.65 243.6 476.18"/><polygon class="cls-10" points="205.87 432.08 234.88 432.08 232.52 420.09 208.24 420.09 205.87 432.08"/><polygon class="cls-10" points="200.33 460.12 240.42 460.12 238.06 448.14 202.7 448.14 200.33 460.12"/><path class="cls-11" d="m741.73,464.8s-18.18,10-24.17,10.07c-5.98.07-1.55,2.64,4.96,3.25,5.16.48,15.49-.99,21.52-2.15.46-.09,1.91-1.56,1.91-1.56l.41,1.42c.56.12,3.12-.25,3.12-.25.22-3.05-1.29-10.82-1.29-10.82l-6.47.04Z"/><polygon class="cls-8" points="741.73 464.8 741.97 459.94 748.42 460.26 748.2 464.75 741.73 464.8"/><path class="cls-18" d="m741.51,319.12l21.53,3.68s-6.56,57.54-13.36,79.96c0,0,4.46,38.55-.31,59.39l-8.53.41s-7.26-49.29-9.24-57.61c-2.37-9.99.57-34.1,9.91-85.83Z"/><polygon class="cls-11" points="738.95 457.71 739.6 463.29 750.28 463.03 750.86 458.02 738.95 457.71"/><path class="cls-11" d="m767.13,466.77s-18.18,10-24.17,10.07c-5.98.07-1.55,2.64,4.96,3.25,5.16.48,15.49-.99,21.52-2.15.46-.09,1.91-1.56,1.91-1.56l.41,1.42c.56.12,3.12-.25,3.12-.25.22-3.05-1.29-10.82-1.29-10.82l-6.47.04Z"/><polygon class="cls-8" points="767.13 466.77 767.37 461.91 773.82 462.23 773.6 466.72 767.13 466.77"/><path class="cls-18" d="m751.96,322.52l22.82,17.78s7.5,11.08-3.97,63.09c0,0,9.95,28.63,3.59,60.6l-8.44,1.28s-10.2-53.02-13.01-61.09c-3.38-9.7-6.09-36.62-.99-81.67Z"/><polygon class="cls-11" points="763.83 460.13 764.92 465.64 775.54 464.53 775.72 459.49 763.83 460.13"/><polygon class="cls-18" points="750.29 339.95 737.9 339.62 735.92 351.52 753.86 382.29 750.29 339.95"/><path class="cls-13" d="m763.5,275.84s-8.47-7.64-18.78,7.73c-10.31,15.38-17.08,22.62-17.08,22.62l-39.18-21.6-4.09,8.32s35.29,40.37,46.51,37.66c11.21-2.72,57.92-52.17,32.61-54.74Z"/><path class="cls-8" d="m684.63,293.21s-18.98-14.61-9.94-12.04c4.1,1.17,7.71,4.28,9.15,2.99,1.41-1.26-1.6-2.42-2.12-5.22-.47-2.52,8.45,6.96,8.45,6.96l-5.56,7.31Z"/><g class="cls-28"><polygon class="cls-7" points="697.86 297.22 714.12 312.39 695.74 303.79 697.86 297.22"/></g><g class="cls-28"><polygon class="cls-7" points="726.38 321.01 745.97 303.26 745.97 307.95 736.17 323.63 726.38 321.01"/></g><polygon class="cls-13" points="682.2 292.93 686.23 295.97 693.71 286.84 689.69 283.8 682.2 292.93"/><path class="cls-13" d="m755.34,269.67c6.55-2.4,25.1-3.97,27.96,11.87,2.61,14.47-2.9,27.06-5.07,37.32-1.54,7.32-2.37,18.35-2.37,18.35,0,0-12.15,14.36-34.76,7.93l1.46-24.58,1.55-13.61c-1.25-15.46-.89-17.35,1.87-25.12,1.15-3.25,5.37-10.25,8.46-11.77.3-.15.6-.28.91-.39Z"/><path class="cls-18" d="m745.36,294.92l-1.93-1.45c0-9.89,4.06-23.53,19.96-24.76h.5c-20.46,3.96-18.54,25.96-18.54,26.21Z"/><path class="cls-8" d="m761.16,243.99l11.76-.07-1.42,24.53c-.04.72-.22,1.58-.87,2.04-4.81,3.45-8.92,1.77-8.92,1.77-3.97-.95-1.08-2.75-.51-7.22l-.05-21.05Z"/><path class="cls-8" d="m759.69,238.45c-5.7,7.17-6.36,13.48-6.17,20.03.24,8.31,11.3,8.41,18.34,4.04,6.24-3.88,9.18-11.01,7.64-17.8-2-8.79-13.65-14.01-19.8-6.27Z"/><g class="cls-28"><polygon class="cls-7" points="760.65 267.47 767.34 264.76 761.16 265.39 760.65 267.47"/></g><path class="cls-8" d="m755.9,246.37s-2.41,1.92-4.83,5.09c0,0,1.01,2.14,3.13,2.83l1.7-7.92Z"/><path class="cls-3" d="m780.74,243.44c-.44-11.33-20.13-11.22-22.5-9.37-4.58,3.58-.89,7.61-.89,7.61l.97-.72c.16-.08.34-.16.55-.24,2.9.43,13.04,2.51,9.94,10.49-.78,2.01.95,2.94,3.01,3.05.19,2.43.17,5.03-.23,7.63-.29,1.87,9.85-.05,9.14-18.46Z"/><path class="cls-16" d="m676.77,264.02h2.59v53.51h-4.21v-51.88c0-.9.73-1.63,1.63-1.63Z" transform="translate(10.66 605.22) rotate(-48.49)"/><path class="cls-10" d="m696.97,295.5c1.14,1.01,1.79,2.46,1.77,3.99l-.07,7.46-40.07-35.46,11.55,1.79c1.35.21,2.61.8,3.64,1.71l23.18,20.52Z"/><path class="cls-8" d="m765.16,255.83c.91,1.37,3.24,1.42,5.21.12,1.97-1.3,2.83-3.47,1.92-4.84-.91-1.37-3.24-1.42-5.21-.12-1.97,1.3-2.83,3.47-1.92,4.84Z"/><path class="cls-18" d="m775.96,343.55s.72-17.37,2.27-24.69c.87-4.11,2.26-8.59,3.47-13.41-14.6-1.33-28.63-7.29-38.25-12.35-.11,3.16.12,7.27.66,13.84l-3,13.6-4.17,24.92c22.61,6.43,39.03-1.91,39.03-1.91Z"/><path class="cls-18" d="m768.74,359.32l-7.62-2.07c9.83-36.24,14.62-70.15,10.46-74.06-2.72-2.44-4.47-2.32-5.56-2.01-5.76,1.6-11.33,14.16-13.12,19.99l-5.98-2.32c.69-2.25,5.52-22.09,16.98-25.28,3.05-.85,7.78-.89,12.95,3.74,10.25,9.19-2.26,60.41-8.12,82Z"/><path class="cls-13" d="m766.69,278.52s-7.7-.02-16.04,16.51c-8.34,16.53-12.68,20.92-12.68,20.92l-39.31-17.34-6.82,8.87s42.03,35.86,51.85,29.79c18.31-11.32,48.44-59.32,23.01-58.75Z"/><path class="cls-8" d="m691.84,307.48s-8.98.74-11.1-4.59c-1.35-3.4-6.14-10.96-1.41-7.47,2.97,2.2,7.04,6.28,8.26,4.57,1.19-1.67-5.02-2.32-3.42-5.61l10.55,5.91-2.88,7.19Z"/><polygon class="cls-13" points="688.75 309.73 693.21 312.08 700.68 298.85 696.22 296.51 688.75 309.73"/><path class="cls-13" d="m782.11,247.18l-24.62-12.51c3.46-6.8,11.77-9.51,18.57-6.05,6.8,3.46,9.51,11.77,6.05,18.57"/><path class="cls-1" d="m771.02,227.17c1.71.15,3.41.61,5.04,1.44,6.8,3.46,9.51,11.77,6.05,18.57l-6.41-3.26c2.62-6.03.6-13.02-4.68-16.75Z"/><rect class="cls-1" x="765.81" y="223.88" width="3.95" height="32.03" transform="translate(222.14 830.92) rotate(-64.64)"/><polygon class="cls-19" points="716.36 476.18 669.92 476.18 685.04 399.65 701.24 399.65 716.36 476.18"/><rect class="cls-13" x="658.93" y="472.37" width="66.27" height="7.91"/><polygon class="cls-13" points="716.36 476.18 669.92 476.18 685.04 399.65 701.24 399.65 716.36 476.18"/><polygon class="cls-10" points="678.64 432.08 707.65 432.08 705.28 420.09 681 420.09 678.64 432.08"/><polygon class="cls-10" points="673.1 460.12 713.19 460.12 710.82 448.14 675.46 448.14 673.1 460.12"/><path class="cls-20" d="m369.1,491.72c.94,0,1.78-.66,1.98-1.62l35.14-171.45c.22-1.09-.48-2.16-1.58-2.39-1.09-.23-2.16.48-2.39,1.58l-35.14,171.45c-.22,1.09.48,2.16,1.58,2.39.14.03.27.04.41.04Z"/><path class="cls-20" d="m402.6,335.16h50.71c1.12,0,2.02-.91,2.02-2.02s-.91-2.02-2.02-2.02h-50.71c-1.12,0-2.02.91-2.02,2.02s.91,2.02,2.02,2.02Z"/><path class="cls-20" d="m397.65,357.21h50.71c1.12,0,2.02-.91,2.02-2.02s-.91-2.02-2.02-2.02h-50.71c-1.12,0-2.02.91-2.02,2.02s.91,2.02,2.02,2.02Z"/><path class="cls-20" d="m393.4,379.26h50.71c1.12,0,2.02-.91,2.02-2.02s-.91-2.02-2.02-2.02h-50.71c-1.12,0-2.02.91-2.02,2.02s.91,2.02,2.02,2.02Z"/><path class="cls-20" d="m388.81,401.32h50.71c1.12,0,2.02-.91,2.02-2.02s-.91-2.02-2.02-2.02h-50.71c-1.12,0-2.02.91-2.02,2.02s.91,2.02,2.02,2.02Z"/><path class="cls-20" d="m384.48,423.37h50.71c1.12,0,2.02-.91,2.02-2.02s-.91-2.02-2.02-2.02h-50.71c-1.12,0-2.02.91-2.02,2.02s.91,2.02,2.02,2.02Z"/><path class="cls-20" d="m380.18,445.42h50.71c1.12,0,2.02-.91,2.02-2.02s-.91-2.02-2.02-2.02h-50.71c-1.12,0-2.02.91-2.02,2.02s.91,2.02,2.02,2.02Z"/><path class="cls-20" d="m375.8,467.47h50.71c1.12,0,2.02-.91,2.02-2.02s-.91-2.02-2.02-2.02h-50.71c-1.12,0-2.02.91-2.02,2.02s.91,2.02,2.02,2.02Z"/><path class="cls-20" d="m423.38,491.72c.94,0,1.78-.66,1.98-1.62l35.14-171.45c.22-1.09-.48-2.16-1.58-2.39-1.09-.23-2.16.48-2.39,1.58l-35.14,171.45c-.22,1.09.48,2.16,1.58,2.39.14.03.27.04.41.04Z"/><line class="cls-25" x1="590.48" y1="208.61" x2="600.87" y2="235.02"/><polyline class="cls-26" points="563.15 202.27 566.55 208.2 590.04 207.39 607.28 192.04 604.7 183.39"/><line class="cls-26" x1="606.65" y1="181.77" x2="560.9" y2="201.99"/><path class="cls-17" d="m600.27,193.71l-26.75,11.22c-3.86,1.62-8.34-.21-9.96-4.07h0c-1.62-3.86.21-8.34,4.07-9.96l26.75-11.22c3.86-1.62,8.34.21,9.96,4.07h0c1.62,3.86-.21,8.34-4.07,9.96Z"/><path class="cls-5" d="m572,201.95l26.75-11.22c3.5-1.47,5.3-5.29,4.41-8.86-2.08-2.5-5.62-3.51-8.77-2.18l-26.75,11.22c-3.5,1.47-5.3,5.29-4.41,8.86,2.08,2.5,5.62,3.5,8.77,2.18Z"/><polygon class="cls-18" points="566.13 447.16 531.39 447.16 525.01 399.65 572.52 399.65 566.13 447.16"/><path class="cls-23" d="m528.12,400.82c0-11.4,9.24-20.64,20.64-20.64s20.64,9.24,20.64,20.64"/><path class="cls-5" d="m562.83,401.21c.32-.31.37-.89.27-1.56h-28.6c-.55,3.24.79,6.78,1.95,6.93,1.44.2,2.44-4.82,4.2-4.7,1.48.1,3.53,3.5,2.1,11.59-1.26,7.14,3.09,8.65,3.57,8.56,4.45-.84,1.56-17.16,5.51-18.3,1.49-.43,2.97,1.76,4.96.92,1.64-.69,1.72-2.64,3.7-3.19,1.21-.34,1.87.21,2.35-.25Z"/><path class="cls-13" d="m592.85,356.92l22.35,3.97,16.82-8.71s-1.68-11.88-1.59-15.2c.23-7.97,4.07-25.91-1.6-38.71-4.17-9.41-11.93-5.13-21.75-2.03l-11.05,1.21s-17.72-10.71-5.34,38.66c1.41,5.62,2.15,20.81,2.15,20.81Z"/><path class="cls-6" d="m602.09,262.07c-4.39,4.49-6.24,11.46-6.11,17.95.14,7.05,10.99,7.4,16.92,3.64,5.26-3.33,8.74-10.34,7.38-16.07-1.76-7.43-12.33-11.51-18.19-5.52Z"/><path class="cls-6" d="m599.8,265.29s-2.68,3.13-4.93,3.82c0,0,.6,2.02,2.37,2.91l2.56-6.74Z"/><path class="cls-13" d="m586.31,301.62l-5.69,21.72-3.56,11.23-21.7,38.18,6.78,4.53,27.4-38.45,4.2-11.95,16.29-31.7c1.31-3.72-6.64-3.58-10.35-4.88-3.72-1.31-10.69,3.57-13.37,11.33Z"/><path class="cls-6" d="m556.28,371.12s-8.22,9.08-2.59,8.47c3.94-.43,1.09-1,1.09-1,0,0-5.61,4.92-3.13,4.83,2.47-.09,7.68,2.11,8.95-1.27,1.53-4.09,2.25-6.49,2.25-6.49l-6.56-4.53Z"/><rect class="cls-13" x="557.98" y="366.4" width="5.23" height="11.71" transform="translate(-62.63 626.08) rotate(-55.74)"/><polygon class="cls-13" points="611.64 275.07 596.88 233.71 604.34 230.42 624.67 273.04 626.74 285.54 613.19 286.75 611.64 275.07"/><path class="cls-13" d="m624.47,315.57c-3.89.64-7.56-1.99-8.21-5.88l-3.07-22.95,13.54-1.2,4.31,20.05c.64,3.89-2.69,9.33-6.58,9.97Z"/><path class="cls-6" d="m599.16,234.43s-8.46-8.99-4.91-10.76l2.62,4.29s-3.09-11.02-.67-10.51c2.42.52,7.71,3.59,7.16,7.16-.65,4.26-1.01,7.81-1.01,7.81l-3.2,2Z"/><rect class="cls-13" x="598.88" y="228.91" width="5.23" height="10.18" transform="translate(595.56 -411.39) rotate(68.22)"/><polygon class="cls-6" points="600.4 280.25 601.43 303.5 614.16 299.44 608.16 278.2 600.4 280.25"/><path class="cls-18" d="m604.47,346.56c.67-26.67-2.74-47.76-4.88-56.29-1.55-.5-3.64.05-5.75,1.41,2.02,7.97,5.42,27.19,4.72,54.73l5.92.15Z"/><path class="cls-18" d="m635.71,371.87c2.82-20.23-4.97-33.92-4.97-33.92-13.09,7.27-38.87,5.6-38.87,5.6l-3.65,34.18-2.02,37.87s.86,21.19,9.77,49.36l10.08-1.62s1.83-19.99-1.59-48.51c0,0,5.06-20.39,7.82-30.89.18-.69,3.17-1.79,3.33-2.38,0,0,15.03-.8,20.1-9.69Z"/><path class="cls-18" d="m618.69,464.65l8.82-1.3s4.12-20.66.03-47.91c0,0,7-15.48,7.59-40,.24-1.21.42-2.39.58-3.55-5.06,8.89-20.1,9.69-20.1,9.69l-6.47,35.76s2.66,17.18,9.55,47.32Z"/><path class="cls-11" d="m620.6,380.85c-2.89.6-4.99.71-4.99.71l-6.47,35.76s2.63,16.99,9.43,46.8c1.03-.68,1.87-1.5,2.31-2.5.89-2.06-.46-3.38-2.13-9.94-1.04-4.1-.49-3.49-2.13-11.72-1.26-6.32-1.89-9.47-2.49-11.01-1.68-4.33-3.38-6.16-2.49-8.52.85-2.26,3.17-2.64,3.2-4.62.02-1.67-1.63-2.34-2.49-3.91-2.03-3.72,2.03-9.54,3.2-11.36,2.42-3.78,4.79-9.79,5.05-19.69Z"/><polygon class="cls-6" points="595.97 464.97 597.87 471.17 604.9 470.64 604.87 463.63 595.97 464.97"/><path class="cls-13" d="m585.08,480.43s.08-4.17,7.92-5.47c4.14-.69,2.02-3.75,2.02-3.75l7.73-2.38-7.36,12.97-10.3-1.37Z"/><path class="cls-11" d="m603.97,468.74c-5.21-.02-4.83,4.42-5.61,7.23h0s-3.67,5.28-11.51,4.66c1.87.25,4.87.67,7.24.99,2.4.33,4.83.18,7.17-.45l4.37-1.18c2.54-1.39,5.31-10.98-1.23-11.25-.14,0-.29,0-.43,0Z"/><path class="cls-1" d="m585.58,480.49c.45.07.86.11,1.28.14-1.57-.21-2.35-.31-1.28-.14Z"/><polygon class="cls-6" points="618.69 464.65 620.51 470.88 627.54 470.35 627.51 463.35 618.69 464.65"/><path class="cls-13" d="m607.72,480.14s.08-4.17,7.92-5.47c4.14-.69,2.02-3.75,2.02-3.75l7.73-2.38-7.36,12.97-10.3-1.37Z"/><path class="cls-11" d="m626.61,468.45c-5.21-.02-4.83,4.42-5.61,7.23h0s-3.67,5.28-11.51,4.66c1.87.25,4.87.67,7.24,1,2.4.33,4.83.18,7.17-.45l4.37-1.18c2.54-1.39,5.31-10.98-1.23-11.25-.14,0-.29,0-.43,0Z"/><path class="cls-1" d="m608.21,480.21c.45.07.86.11,1.28.14-1.57-.21-2.35-.31-1.28-.14Z"/><rect class="cls-11" x="593.85" y="460.86" width="13.17" height="5.54" transform="translate(-46.68 67.75) rotate(-6.22)"/><rect class="cls-11" x="616.53" y="459.56" width="13.17" height="5.54" transform="translate(-46.4 70.2) rotate(-6.22)"/><path class="cls-10" d="m600.19,288.84l-.21,3.9s5.14,1.79,8.36.84c3.22-.95,4.33-3.96,4.33-3.96l-1.07-2.9s-2.9,4.56-11.4,2.12Z"/><path class="cls-3" d="m602.67,256.57s-7.54,6.81,1.71,13.8c0,0,3.42,2.49-1.63,8.54-1.03,1.24-1.04,3.04.01,4.27,3.07,3.61,9.79,8.89,16.95-2.26,3.32-5.17,3.76-11.23.99-14.82-2.65-3.43-5.08-5.37-9.18-6.79-3.72-1.29-5.67-.84-8.84-2.75Z"/><path class="cls-3" d="m602.71,278.9c-8.9,7.7-8.38,18.26-8.37,19.92.08,8.49,8.61,15.32,8.8,17.32.52,5.46-8.26,16.98-7.01,22.69,1.81,8.26,16.51,11.26,30.91,5.25,16.47-6.88,18.6-28.79,3.89-43.85-6.5-6.66-4.38-19.73-5.62-29.25-.75-5.75-2.44.33-5.21-3.93-4.15-6.36-14.36-8.53-15.95-6.59-1.49,1.82,5.02,6.55,3.59,12.09-.72,2.77-1.61,3.39-5.03,6.36Z"/><path class="cls-6" d="m607.1,272.49c.59,1.14-.08,2.66-1.49,3.39-1.41.73-3.04.4-3.63-.75-.59-1.14.08-2.66,1.49-3.39,1.41-.73,3.04-.4,3.63.75Z"/><path class="cls-13" d="m624.49,275.07l-21.67-17.12c4.73-5.99,13.41-7,19.4-2.28,5.99,4.73,7,13.41,2.28,19.4"/><path class="cls-1" d="m617.56,253.27c1.64.48,3.23,1.27,4.65,2.4,5.99,4.73,7,13.41,2.28,19.4l-5.64-4.46c3.76-5.39,3.16-12.64-1.29-17.34Z"/><rect class="cls-1" x="609.91" y="249.1" width="3.95" height="32.03" transform="translate(33.49 597) rotate(-53.27)"/><g class="cls-29"><path class="cls-2" d="m-3032.75-132.76c169.87-105.56,358.89-187.74,561.81-244.25,209.93-58.46,430.28-88.1,654.94-88.1s445.01,29.64,654.94,88.1c202.92,56.51,391.94,138.69,561.81,244.25C-431.01-28.21-286.15,96.39-168.69,237.57-52.1,377.71,34.4,530.57,88.53,692.08V-569h-3809.06V692.08c54.13-161.51,140.63-314.37,257.22-454.52,117.46-141.18,262.32-265.77,430.56-370.32Z"/><path class="cls-12" d="m88.63,705.15C-134.21,18.47-917.42-461.11-1816-461.11S-3497.79,18.47-3720.63,705.15l-1.9,5.86v5.52C-3504.66,45.14-2733.68-451.11-1816-451.11S-127.34,45.14,90.53,716.53v-5.52l-1.9-5.86Z"/></g><polygon class="cls-21" points="-2117 -573.5 -1515 -569.5 -1515 -7.84 -2117 -7.84 -2117 -573.5"/><g class="cls-27"><path class="cls-15" d="m-1404.5-172.52c-1622.1,0-2984.89-877.18-3370-2063.93V340H1965.5v-2576.45C1580.39-1049.7,217.6-172.52-1404.5-172.52Z"/></g></svg>